<svg width="1439" height="650" viewBox="0 0 1439 650" fill="none" xmlns="http://www.w3.org/2000/svg">
<g filter="url(#filter0_d_103_2389)">
<path d="M303.063 242.475C303.056 242.477 303.178 242.355 303.451 242.104C303.206 242.349 303.07 242.474 303.063 242.475ZM348.43 213.638C348.647 213.539 348.864 213.442 349.081 213.344C348.841 213.454 348.659 213.536 348.538 213.589C348.494 213.609 348.458 213.625 348.43 213.638ZM404.435 325.98C409.962 325.612 430.26 324.261 453.107 313.877C454.909 315.094 456.689 316.238 458.442 317.312C460.545 318.601 462.601 319.785 464.6 320.872C465.6 321.415 466.585 321.934 467.553 322.428C468.037 322.676 468.518 322.917 468.993 323.153C469.231 323.271 469.468 323.387 469.704 323.502L469.835 323.566C469.909 323.602 469.983 323.637 470.057 323.673L470.233 323.758C470.289 323.785 470.346 323.812 485.099 293.138C485.12 293.12 485.14 293.102 485.161 293.084L470.408 323.842L476.343 326.689L482.545 328.896L501.463 275.754C501.467 275.749 501.471 275.743 501.475 275.738C482.563 328.903 482.593 328.914 482.623 328.924L482.702 328.952L482.864 329.01C482.973 329.048 483.084 329.087 483.199 329.127C483.305 329.165 483.414 329.203 483.526 329.241C483.653 329.285 483.783 329.331 483.917 329.376C484.417 329.548 484.96 329.732 485.544 329.925C486.711 330.311 488.055 330.741 489.559 331.197C492.544 332.102 496.284 333.151 500.636 334.187C508.961 336.168 521.372 338.551 536.165 339.231C560.475 340.349 624.891 337.763 669.456 279.338C671.459 276.712 673.399 273.99 675.264 271.175C732.878 321.245 809.438 329.835 868.816 328.496C889.151 328.037 909.839 326.029 929.555 320.978C937.339 318.984 947.811 315.819 959.316 310.502C966.6 315.657 973.595 319.721 979.75 322.876C1001.2 333.871 1021.89 338.847 1035.7 341.359C1050.34 344.019 1063.31 344.965 1072.18 345.321C1076 345.475 1079.36 345.53 1082.12 345.537C1084.12 345.644 1086.47 345.748 1089.09 345.826C1096.16 346.038 1106.88 346.118 1118.9 345.188C1129.28 344.385 1148.7 342.304 1169.46 334.694C1176.19 332.225 1190.9 326.306 1206.66 314.689C1218.85 321.681 1231.33 326.256 1243.15 328.997C1271.97 335.682 1298.97 330.992 1302.5 330.378C1302.68 330.347 1302.8 330.327 1302.85 330.318C1306.13 329.83 1308.5 329.455 1310.45 329.146C1312.5 328.821 1314.1 328.57 1315.8 328.334C1315.78 345.214 1315.77 362.167 1315.75 378.984C1315.71 431.038 1315.66 481.775 1315.62 525H125.008L125.008 278.093C147.528 298.782 173.946 312.954 202.962 319.884C230.976 326.576 255.512 325.047 270.813 323.321C280.924 322.18 299.836 318.944 302.112 318.554C302.253 318.53 302.33 318.517 302.337 318.516C304.852 318.134 306.279 317.984 306.904 317.927C313.946 318.366 320.133 319.22 328.857 320.424C336.238 321.443 345.435 322.712 358.504 324.193C367.269 325.186 385.797 327.247 404.017 326.008C404.145 326 404.285 325.99 404.435 325.98ZM587.38 215.625C587.405 215.611 587.43 215.597 587.454 215.582C587.442 215.59 587.43 215.597 587.418 215.603L587.38 215.625Z" stroke="black" stroke-width="250" shape-rendering="crispEdges"/>
</g>
<defs>
<filter id="filter0_d_103_2389" x="0" y="0" width="1473" height="650" filterUnits="userSpaceOnUse" color-interpolation-filters="sRGB">
<feFlood flood-opacity="0" result="BackgroundImageFix"/>
<feColorMatrix in="SourceAlpha" type="matrix" values="0 0 0 0 0 0 0 0 0 0 0 0 0 0 0 0 0 0 127 0" result="hardAlpha"/>
<feOffset dx="27" dy="-15"/>
<feGaussianBlur stdDeviation="2.5"/>
<feComposite in2="hardAlpha" operator="out"/>
<feColorMatrix type="matrix" values="0 0 0 0 0 0 0 0 0 0 0 0 0 0 0 0 0 0 0.25 0"/>
<feBlend mode="normal" in2="BackgroundImageFix" result="effect1_dropShadow_103_2389"/>
<feBlend mode="normal" in="SourceGraphic" in2="effect1_dropShadow_103_2389" result="shape"/>
</filter>
</defs>
</svg>
